<?xml version="1.0" encoding="UTF-8"?>
<svg xmlns="http://www.w3.org/2000/svg" xmlns:xlink="http://www.w3.org/1999/xlink" width="64pt" height="64pt" viewBox="0 0 64 64" version="1.1">
<g id="surface5997809">
<path style=" stroke:none;fill-rule:nonzero;fill:rgb(89.019608%,67.45098%,22.352941%);fill-opacity:1;" d="M 7 8 C 5.347656 8 4 9.347656 4 11 L 4 53 C 4 54.652344 5.347656 56 7 56 L 57 56 C 58.652344 56 60 54.652344 60 53 L 60 11 C 60 9.347656 58.652344 8 57 8 Z M 7 10 L 57 10 C 57.550781 10 58 10.449219 58 11 L 58 53 C 58 53.550781 57.550781 54 57 54 L 7 54 C 6.449219 54 6 53.550781 6 53 L 6 20 L 47 20 C 47.554688 20 48 19.550781 48 19 C 48 18.449219 47.554688 18 47 18 L 6 18 L 6 11 C 6 10.449219 6.449219 10 7 10 Z M 10 12 C 9.445312 12 9 12.449219 9 13 L 9 15 C 9 15.550781 9.445312 16 10 16 C 10.554688 16 11 15.550781 11 15 L 11 13 C 11 12.449219 10.554688 12 10 12 Z M 15 12 C 14.445312 12 14 12.449219 14 13 L 14 15 C 14 15.550781 14.445312 16 15 16 C 15.554688 16 16 15.550781 16 15 L 16 13 C 16 12.449219 15.554688 12 15 12 Z M 20 12 C 19.445312 12 19 12.449219 19 13 L 19 15 C 19 15.550781 19.445312 16 20 16 C 20.554688 16 21 15.550781 21 15 L 21 13 C 21 12.449219 20.554688 12 20 12 Z M 25 12 C 24.445312 12 24 12.449219 24 13 L 24 15 C 24 15.550781 24.445312 16 25 16 C 25.554688 16 26 15.550781 26 15 L 26 13 C 26 12.449219 25.554688 12 25 12 Z M 30 12 C 29.445312 12 29 12.449219 29 13 L 29 15 C 29 15.550781 29.445312 16 30 16 C 30.554688 16 31 15.550781 31 15 L 31 13 C 31 12.449219 30.554688 12 30 12 Z M 35 12 C 34.445312 12 34 12.449219 34 13 L 34 15 C 34 15.550781 34.445312 16 35 16 C 35.554688 16 36 15.550781 36 15 L 36 13 C 36 12.449219 35.554688 12 35 12 Z M 40 12 C 39.445312 12 39 12.449219 39 13 L 39 15 C 39 15.550781 39.445312 16 40 16 C 40.554688 16 41 15.550781 41 15 L 41 13 C 41 12.449219 40.554688 12 40 12 Z M 45 12 C 44.445312 12 44 12.449219 44 13 L 44 15 C 44 15.550781 44.445312 16 45 16 C 45.554688 16 46 15.550781 46 15 L 46 13 C 46 12.449219 45.554688 12 45 12 Z M 50 12 C 49.445312 12 49 12.449219 49 13 L 49 15 C 49 15.550781 49.445312 16 50 16 C 50.554688 16 51 15.550781 51 15 L 51 13 C 51 12.449219 50.554688 12 50 12 Z M 55 12 C 54.445312 12 54 12.449219 54 13 L 54 15 C 54 15.550781 54.445312 16 55 16 C 55.554688 16 56 15.550781 56 15 L 56 13 C 56 12.449219 55.554688 12 55 12 Z M 51 18 C 50.445312 18 50 18.449219 50 19 C 50 19.550781 50.445312 20 51 20 L 55 20 C 55.554688 20 56 19.550781 56 19 C 56 18.449219 55.554688 18 55 18 Z M 34.84375 24.011719 C 34.460938 24.070312 34.128906 24.355469 34.03125 24.757812 L 28.03125 48.757812 C 27.894531 49.292969 28.222656 49.835938 28.757812 49.96875 C 28.839844 49.992188 28.921875 50 29 50 C 29.449219 50 29.855469 49.699219 29.96875 49.246094 L 35.96875 25.246094 C 36.105469 24.707031 35.777344 24.164062 35.242188 24.03125 C 35.109375 23.996094 34.972656 23.988281 34.84375 24.011719 Z M 23 30 C 22.746094 30 22.488281 30.097656 22.292969 30.292969 L 16.292969 36.292969 C 15.902344 36.683594 15.902344 37.316406 16.292969 37.707031 L 22.292969 43.707031 C 22.488281 43.902344 22.742188 44 23 44 C 23.257812 44 23.511719 43.902344 23.707031 43.707031 C 24.097656 43.316406 24.097656 42.683594 23.707031 42.292969 L 18.414062 37 L 23.707031 31.707031 C 24.097656 31.316406 24.097656 30.683594 23.707031 30.292969 C 23.511719 30.097656 23.253906 30 23 30 Z M 41 30 C 40.746094 30 40.488281 30.097656 40.292969 30.292969 C 39.902344 30.683594 39.902344 31.316406 40.292969 31.707031 L 45.585938 37 L 40.292969 42.292969 C 39.902344 42.683594 39.902344 43.316406 40.292969 43.707031 C 40.488281 43.902344 40.742188 44 41 44 C 41.257812 44 41.511719 43.902344 41.707031 43.707031 L 47.707031 37.707031 C 48.097656 37.316406 48.097656 36.683594 47.707031 36.292969 L 41.707031 30.292969 C 41.511719 30.097656 41.253906 30 41 30 Z M 41 30 "/>
</g>
</svg>
