<?xml version="1.0" encoding="UTF-8"?>
<svg xmlns="http://www.w3.org/2000/svg" xmlns:xlink="http://www.w3.org/1999/xlink" width="64pt" height="64pt" viewBox="0 0 64 64" version="1.1">
<g id="surface5936742">
<path style=" stroke:none;fill-rule:nonzero;fill:rgb(89.019608%,67.45098%,22.352941%);fill-opacity:1;" d="M 32.167969 2.625 C 31.71875 2.625 31.269531 2.699219 30.839844 2.84375 L 16.363281 7.8125 C 15.636719 8.0625 15.171875 8.722656 15.171875 9.492188 C 15.171875 10.257812 15.636719 10.917969 16.363281 11.167969 L 19.046875 12.085938 C 17.835938 12.269531 16.496094 12.664062 15.5 13.3125 C 12.925781 13.453125 11.097656 15.347656 10.8125 18.214844 C 10.636719 19.960938 10.800781 21.257812 10.898438 22.03125 C 10.929688 22.265625 10.96875 22.558594 10.964844 22.625 C 10.957031 22.671875 10.949219 22.714844 10.941406 22.761719 C 10.910156 22.769531 10.882812 22.777344 10.855469 22.78125 C 10.132812 22.976562 9.613281 23.617188 9.421875 24.546875 C 9.28125 25.25 9.324219 26.097656 9.546875 26.9375 C 9.917969 28.316406 10.664062 29.34375 11.527344 29.742188 C 11.921875 30.90625 12.457031 32.03125 13.097656 33.050781 L 4.578125 38.5625 C 1.710938 40.421875 0 43.558594 0 46.980469 L 0 50.1875 C 0 51.738281 1.261719 53 2.8125 53 L 8 53 L 8 55 C 8 56.648438 9.351562 58 11 58 L 53 58 C 54.648438 58 56 56.648438 56 55 L 56 53 L 61.109375 53 C 62.660156 53 63.921875 51.738281 63.921875 50.1875 L 63.921875 46.980469 C 63.921875 43.558594 62.199219 40.421875 59.339844 38.5625 L 51.570312 33.53125 C 52.351562 32.390625 53 31.089844 53.449219 29.738281 C 54.320312 29.339844 55.058594 28.308594 55.429688 26.929688 C 55.980469 24.878906 55.429688 23.128906 54.128906 22.78125 C 54.101562 22.78125 54.070312 22.769531 54.039062 22.761719 C 53.960938 22.25 53.828125 21.742188 53.621094 21.140625 C 53.71875 21.171875 53.820312 21.199219 53.910156 21.238281 C 54.25 21.378906 54.648438 21.320312 54.929688 21.078125 C 55.21875 20.851562 55.347656 20.46875 55.269531 20.097656 C 54.191406 15.148438 50.578125 12.144531 45.578125 11.984375 L 47.96875 11.167969 C 48.695312 10.917969 49.164062 10.257812 49.164062 9.492188 C 49.164062 8.722656 48.695312 8.0625 47.96875 7.8125 L 33.496094 2.84375 C 33.066406 2.699219 32.617188 2.625 32.167969 2.625 Z M 32.167969 4.625 C 32.398438 4.625 32.625 4.660156 32.84375 4.734375 L 46.691406 9.488281 L 32.84375 14.238281 C 32.40625 14.390625 31.925781 14.390625 31.488281 14.238281 L 17.640625 9.488281 L 31.488281 4.734375 C 31.707031 4.660156 31.9375 4.625 32.167969 4.625 Z M 37.515625 6.84375 C 37.382812 6.832031 37.25 6.84375 37.121094 6.886719 L 31.867188 8.535156 C 31.339844 8.699219 31.046875 9.261719 31.214844 9.789062 C 31.347656 10.214844 31.742188 10.488281 32.167969 10.488281 C 32.265625 10.488281 32.367188 10.476562 32.46875 10.441406 L 37.71875 8.796875 C 38.246094 8.628906 38.539062 8.066406 38.375 7.539062 C 38.25 7.144531 37.902344 6.878906 37.515625 6.84375 Z M 22.140625 13.148438 L 30.839844 16.136719 C 31.269531 16.28125 31.71875 16.355469 32.167969 16.355469 C 32.617188 16.355469 33.066406 16.28125 33.496094 16.136719 L 42.175781 13.15625 L 42.773438 17.050781 L 38.855469 17.019531 C 37.628906 17.027344 36.375 17.296875 35.265625 17.855469 L 32.34375 19.3125 C 32.144531 19.414062 31.902344 19.414062 31.699219 19.3125 L 28.78125 17.855469 C 27.671875 17.296875 26.421875 17.027344 25.1875 17.019531 L 21.546875 17.050781 Z M 44.488281 13.96875 L 45.160156 13.96875 C 48.890625 13.96875 51.628906 15.792969 52.871094 19.019531 C 52.488281 19.050781 52.128906 19.171875 51.847656 19.453125 C 51.578125 19.710938 51.191406 20.292969 51.570312 21.34375 C 51.96875 22.421875 52.109375 23.0625 52.160156 23.960938 C 52.171875 24.320312 52.410156 24.621094 52.730469 24.792969 C 52.980469 24.921875 53.300781 24.921875 53.570312 24.820312 C 53.648438 25.089844 53.710938 25.652344 53.5 26.421875 C 53.230469 27.421875 52.75 27.882812 52.660156 27.921875 C 52.21875 27.921875 51.832031 28.210938 51.710938 28.640625 C 51.289062 30.03125 50.660156 31.351562 49.871094 32.480469 C 49.507812 33 49.121094 33.492188 48.699219 33.921875 C 48.410156 34.222656 48.109375 34.492188 47.8125 34.730469 C 47.378906 35.070312 47.308594 35.699219 47.652344 36.128906 C 47.851562 36.378906 48.140625 36.511719 48.429688 36.511719 C 48.648438 36.511719 48.871094 36.441406 49.050781 36.300781 C 49.492188 35.949219 49.921875 35.5625 50.320312 35.109375 L 58.25 40.238281 C 60.550781 41.730469 61.921875 44.25 61.921875 46.980469 L 61.921875 50.1875 C 61.921875 50.640625 61.558594 51 61.109375 51 L 56 51 L 56 49.921875 C 56 45.300781 53.511719 40.980469 49.511719 38.671875 L 40.789062 33.621094 C 41.890625 32.058594 42.761719 30.300781 43.339844 28.53125 C 44.417969 28.097656 45.378906 26.8125 45.847656 25.050781 C 46.128906 24.011719 46.191406 22.96875 46.011719 22.097656 C 45.789062 21.019531 45.1875 20.269531 44.371094 20.050781 C 44.308594 20.03125 44.230469 20.019531 44.152344 20 C 44.136719 19.429688 44.117188 18.980469 44.097656 18.640625 C 44.1875 18.566406 44.273438 18.492188 44.347656 18.402344 C 44.703125 17.988281 44.855469 17.445312 44.777344 16.90625 L 44.328125 13.976562 C 44.382812 13.976562 44.4375 13.96875 44.488281 13.96875 Z M 19.988281 13.988281 L 19.542969 16.90625 C 19.460938 17.445312 19.617188 17.992188 19.96875 18.402344 L 19.972656 18.40625 C 19.941406 18.78125 19.917969 19.296875 19.890625 20 C 19.8125 20.019531 19.738281 20.03125 19.671875 20.050781 C 18.148438 20.460938 17.53125 22.5625 18.1875 25.050781 C 18.667969 26.8125 19.621094 28.097656 20.699219 28.53125 C 21.289062 30.289062 22.148438 32.039062 23.238281 33.597656 L 14.488281 38.671875 C 10.488281 40.980469 8 45.300781 8 49.921875 L 8 51 L 2.8125 51 C 2.359375 51 2 50.640625 2 50.1875 L 2 46.980469 C 2 44.25 3.371094 41.730469 5.671875 40.238281 L 14.277344 34.671875 C 14.550781 34.996094 14.828125 35.308594 15.121094 35.589844 C 15.316406 35.777344 15.566406 35.871094 15.816406 35.871094 C 16.078125 35.871094 16.339844 35.769531 16.535156 35.566406 C 16.917969 35.167969 16.910156 34.535156 16.511719 34.152344 C 15.085938 32.773438 13.90625 30.765625 13.277344 28.636719 C 13.148438 28.210938 12.8125 27.929688 12.371094 27.929688 C 12.230469 27.882812 11.75 27.417969 11.480469 26.417969 C 11.277344 25.65625 11.332031 25.101562 11.410156 24.828125 C 11.6875 24.949219 12.007812 24.945312 12.28125 24.804688 C 12.601562 24.640625 12.808594 24.320312 12.824219 23.964844 C 12.839844 23.628906 12.875 23.296875 12.933594 22.972656 C 12.992188 22.636719 12.945312 22.277344 12.882812 21.78125 C 12.789062 21.042969 12.648438 19.933594 12.796875 18.410156 C 12.996094 16.4375 14.09375 15.304688 15.824219 15.304688 C 16.039062 15.304688 16.253906 15.234375 16.425781 15.105469 C 17.179688 14.539062 18.664062 14.085938 19.988281 13.988281 Z M 25.203125 19.019531 C 26.160156 19.035156 27.0625 19.226562 27.890625 19.640625 L 30.808594 21.097656 C 31.1875 21.289062 31.605469 21.386719 32.023438 21.386719 C 32.441406 21.386719 32.859375 21.289062 33.238281 21.097656 L 36.15625 19.640625 C 36.984375 19.226562 37.910156 19.007812 38.839844 19.019531 L 42.113281 19.046875 C 42.136719 19.582031 42.15625 20.25 42.171875 20.621094 L 42.199219 21.28125 C 42.210938 21.632812 42.417969 21.960938 42.738281 22.121094 C 43.058594 22.28125 43.4375 22.261719 43.738281 22.070312 C 43.796875 22.03125 43.839844 22.011719 43.859375 22 C 44.039062 22.210938 44.289062 23.140625 43.921875 24.53125 C 43.53125 25.992188 42.789062 26.671875 42.558594 26.691406 C 42.117188 26.691406 41.730469 26.980469 41.597656 27.402344 C 41.058594 29.21875 40.1875 31.0625 39.078125 32.628906 C 38.6875 33.191406 38.257812 33.722656 37.796875 34.203125 C 36.167969 35.960938 34.167969 37.128906 32.019531 37.128906 C 29.898438 37.128906 27.898438 35.941406 26.25 34.171875 C 25.796875 33.683594 25.367188 33.160156 24.96875 32.601562 C 23.847656 31.023438 22.96875 29.191406 22.4375 27.402344 C 22.328125 27.011719 21.886719 26.722656 21.488281 26.691406 C 21.257812 26.671875 20.519531 25.992188 20.128906 24.53125 C 19.730469 23.070312 20.039062 22.101562 20.140625 21.988281 C 20.140625 21.988281 20.1875 22 20.308594 22.070312 C 20.609375 22.261719 20.988281 22.28125 21.308594 22.121094 C 21.628906 21.960938 21.828125 21.628906 21.847656 21.28125 L 21.871094 20.671875 C 21.882812 20.289062 21.90625 19.601562 21.933594 19.046875 Z M 24.480469 35.1875 C 26.539062 37.53125 29.148438 39.128906 32.019531 39.128906 C 34.878906 39.128906 37.488281 37.539062 39.539062 35.210938 L 48.511719 40.402344 C 51.898438 42.359375 54 46.011719 54 49.921875 L 54 55 C 54 55.550781 53.550781 56 53 56 L 11 56 C 10.449219 56 10 55.550781 10 55 L 10 49.921875 C 10 46.011719 12.101562 42.359375 15.488281 40.402344 Z M 24.0625 39 C 23.671875 38.976562 23.292969 39.183594 23.105469 39.550781 C 22.859375 40.046875 23.058594 40.648438 23.550781 40.894531 L 31.550781 44.894531 C 31.695312 44.964844 31.847656 45 32 45 C 32.152344 45 32.308594 44.964844 32.449219 44.894531 L 40.449219 40.894531 C 40.941406 40.648438 41.140625 40.046875 40.894531 39.550781 C 40.648438 39.058594 40.046875 38.859375 39.550781 39.105469 L 32 42.882812 L 24.449219 39.105469 C 24.324219 39.042969 24.191406 39.011719 24.0625 39 Z M 12 50 C 11.449219 50 11 50.449219 11 51 L 11 53 C 11 53.550781 11.449219 54 12 54 C 12.550781 54 13 53.550781 13 53 L 13 51 C 13 50.449219 12.550781 50 12 50 Z M 17 50 C 16.449219 50 16 50.449219 16 51 L 16 53 C 16 53.550781 16.449219 54 17 54 C 17.550781 54 18 53.550781 18 53 L 18 51 C 18 50.449219 17.550781 50 17 50 Z M 22 50 C 21.449219 50 21 50.449219 21 51 L 21 53 C 21 53.550781 21.449219 54 22 54 C 22.550781 54 23 53.550781 23 53 L 23 51 C 23 50.449219 22.550781 50 22 50 Z M 27 50 C 26.449219 50 26 50.449219 26 51 L 26 53 C 26 53.550781 26.449219 54 27 54 C 27.550781 54 28 53.550781 28 53 L 28 51 C 28 50.449219 27.550781 50 27 50 Z M 32 50 C 31.449219 50 31 50.449219 31 51 L 31 53 C 31 53.550781 31.449219 54 32 54 C 32.550781 54 33 53.550781 33 53 L 33 51 C 33 50.449219 32.550781 50 32 50 Z M 37 50 C 36.449219 50 36 50.449219 36 51 L 36 53 C 36 53.550781 36.449219 54 37 54 C 37.550781 54 38 53.550781 38 53 L 38 51 C 38 50.449219 37.550781 50 37 50 Z M 42 50 C 41.449219 50 41 50.449219 41 51 L 41 53 C 41 53.550781 41.449219 54 42 54 C 42.550781 54 43 53.550781 43 53 L 43 51 C 43 50.449219 42.550781 50 42 50 Z M 47 50 C 46.449219 50 46 50.449219 46 51 L 46 53 C 46 53.550781 46.449219 54 47 54 C 47.550781 54 48 53.550781 48 53 L 48 51 C 48 50.449219 47.550781 50 47 50 Z M 52 50 C 51.449219 50 51 50.449219 51 51 L 51 53 C 51 53.550781 51.449219 54 52 54 C 52.550781 54 53 53.550781 53 53 L 53 51 C 53 50.449219 52.550781 50 52 50 Z M 52 50 "/>
</g>
</svg>
