<?xml version="1.0" encoding="UTF-8"?>
<svg xmlns="http://www.w3.org/2000/svg" xmlns:xlink="http://www.w3.org/1999/xlink" width="24pt" height="24pt" viewBox="0 0 24 24" version="1.1">
<g id="surface5964551">
<path style=" stroke:none;fill-rule:nonzero;fill:rgb(89.019608%,67.45098%,22.352941%);fill-opacity:1;" d="M 3 4 C 2.449219 4 2 4.449219 2 5 L 2 19 C 2 19.550781 2.449219 20 3 20 L 21 20 C 21.550781 20 22 19.550781 22 19 L 22 5 C 22 4.449219 21.550781 4 21 4 Z M 4 6 L 20 6 L 20 18 L 18 18 L 18 16 L 13 16 L 13 18 L 4 18 Z M 17.292969 8.292969 L 13.800781 11.785156 L 10.445312 10.105469 C 10.0625 9.914062 9.597656 9.988281 9.292969 10.292969 L 5.292969 14.292969 L 6.707031 15.707031 L 10.195312 12.21875 L 13.550781 13.894531 C 13.9375 14.085938 14.402344 14.011719 14.707031 13.707031 L 18.707031 9.707031 Z M 17.292969 8.292969 "/>
</g>
</svg>
